<?xml version="1.0" encoding="utf-8"?>
<!-- Generator: Adobe Illustrator 21.0.0, SVG Export Plug-In . SVG Version: 6.00 Build 0)  -->
<svg version="1.1" id="Layer_1" xmlns="http://www.w3.org/2000/svg" xmlns:xlink="http://www.w3.org/1999/xlink" x="0px" y="0px"
	 viewBox="0 0 50 50" style="enable-background:new 0 0 50 50;" xml:space="preserve">
<style type="text/css">
	.st0{fill-rule:evenodd;clip-rule:evenodd;fill:#484848;}
	.st1{fill-rule:evenodd;clip-rule:evenodd;fill:#FF6F80;}
	.st2{fill:#484848;}
	.st3{fill:#FF6F80;}
	.st4{fill:#33CEC3;}
	.st5{fill:#26D3CC;}
	.st6{fill:#ACD1CD;}
	.st7{fill:#FF556D;}
	.st8{fill:#E2B3BB;}
	.st9{fill:#28CBC0;}
	.st10{fill:#4BD4CB;}
	.st11{fill:#FF6A7F;}
	.st12{fill:#394B63;}
	.st13{fill:#7E868E;}
	.st14{fill:#979797;}
	.st15{fill:#496CAB;}
	.st16{fill-rule:evenodd;clip-rule:evenodd;fill:#39579B;}
	.st17{fill:#C9C9C9;}
	.st18{fill-rule:evenodd;clip-rule:evenodd;fill:#C9C9C9;}
	.st19{fill:#374961;}
</style>
<g>
	<path class="st2" d="M25,13.5c-6.5,0-11.7,5.2-11.7,11.5S18.5,36.5,25,36.5S36.7,31.3,36.7,25S31.5,13.5,25,13.5z M26.4,30.5
		c-2.4,0-4.3-1.4-5.1-3.4h-1.8v-1.4h1.4c0-0.2,0-0.5,0-0.7c0-0.2,0-0.5,0-0.7h-1.4v-1.4h1.8c0.8-1.9,2.7-3.2,5.1-3.2
		c2.6,0,3.9,1.4,3.9,1.4L29.5,22c0,0-1.3-1.2-3.1-1.2c-1.6,0-2.8,0.8-3.4,1.9h3.8v1.4h-4.3c0,0.2-0.1,0.5-0.1,0.7
		c0,0.2,0,0.5,0.1,0.7h4.3v1.4H23c0.7,1.2,1.9,2,3.4,2c2,0,3.3-1.4,3.3-1.4l0.8,1.1C30.5,28.8,29.1,30.5,26.4,30.5z"/>
	<path class="st2" d="M25,0C11.2,0,0,11.2,0,25c0,13.8,11.2,25,25,25c13.8,0,25-11.2,25-25C50,11.2,38.8,0,25,0z M25,38.5
		c-7.4,0-13.5-6-13.5-13.5s6-13.5,13.5-13.5c7.4,0,13.5,6,13.5,13.5S32.4,38.5,25,38.5z"/>
</g>
</svg>
