<?xml version="1.0" encoding="utf-8"?>
<!-- Generator: Adobe Illustrator 21.0.0, SVG Export Plug-In . SVG Version: 6.00 Build 0)  -->
<svg version="1.1" id="Layer_1" xmlns="http://www.w3.org/2000/svg" xmlns:xlink="http://www.w3.org/1999/xlink" x="0px" y="0px"
	 viewBox="0 0 50 50" style="enable-background:new 0 0 50 50;" xml:space="preserve">
<style type="text/css">
	.st0{fill-rule:evenodd;clip-rule:evenodd;fill:#484848;}
	.st1{fill-rule:evenodd;clip-rule:evenodd;fill:#FF6F80;}
	.st2{fill:#484848;}
	.st3{fill:#FF6F80;}
	.st4{fill:#33CEC3;}
	.st5{fill:#26D3CC;}
	.st6{fill:#ACD1CD;}
	.st7{fill:#FF556D;}
	.st8{fill:#E2B3BB;}
	.st9{fill:#28CBC0;}
	.st10{fill:#4BD4CB;}
	.st11{fill:#FF6A7F;}
	.st12{fill:#394B63;}
	.st13{fill:#7E868E;}
	.st14{fill:#979797;}
	.st15{fill:#496CAB;}
	.st16{fill-rule:evenodd;clip-rule:evenodd;fill:#39579B;}
	.st17{fill:#C9C9C9;}
	.st18{fill-rule:evenodd;clip-rule:evenodd;fill:#C9C9C9;}
	.st19{fill:#374961;}
</style>
<g>
	<path class="st2" d="M27.3,10.7c-1.7,0-3.3,0.4-4.8,1c0.8-0.2,1.7-0.3,2.6-0.3c7.4,0,13.5,6,13.5,13.5c0,0.9-0.1,1.7-0.3,2.6
		c0.7-1.5,1-3.2,1-4.8C39.3,16.1,33.9,10.7,27.3,10.7z"/>
	<path class="st2" d="M22.7,15.4c-0.6,0-1.2,0.1-1.7,0.1c-0.2,0-0.5,0.1-0.7,0.1c-0.3,0.1-0.6,0.1-0.9,0.2c-0.3,0.1-0.6,0.2-0.8,0.3
		c-0.3,0.1-0.5,0.2-0.8,0.3c-0.3,0.1-0.6,0.3-0.8,0.4c-0.5,0.3-0.9,0.6-1.4,0.9c0,0,0,0,0,0c-3,2.3-4.7,5.8-4.7,9.5
		c0,6.6,5.4,12,12,12c3.8,0,7.2-1.7,9.5-4.7l0,0c0.3-0.5,0.6-0.9,0.9-1.4c0.1-0.3,0.3-0.5,0.4-0.8c0.1-0.3,0.2-0.5,0.3-0.8
		c0.1-0.3,0.2-0.6,0.3-0.8c0.1-0.3,0.2-0.6,0.2-0.9c0.1-0.2,0.1-0.5,0.1-0.7c0.1-0.6,0.1-1.1,0.1-1.7C34.6,20.7,29.3,15.4,22.7,15.4
		z M23.2,33c-2.5,0-4.4-1.4-5.2-3.5h-1.8V28h1.5c0-0.2,0-0.5,0-0.8c0-0.3,0-0.5,0-0.7h-1.5V25H18c0.8-2,2.8-3.4,5.2-3.4
		c2.6,0,4,1.4,4,1.4l-0.8,1.2c0,0-1.3-1.2-3.2-1.2c-1.6,0-2.8,0.8-3.5,2h3.9v1.5h-4.4c0,0.2-0.1,0.5-0.1,0.7c0,0.3,0,0.5,0.1,0.8
		h4.4v1.5h-3.9c0.7,1.2,1.9,2.1,3.5,2.1c2.1,0,3.4-1.4,3.4-1.4l0.8,1.1C27.5,31.3,26,33,23.2,33z"/>
	<path class="st2" d="M25.1,12.9c-1.9,0-3.7,0.4-5.3,1.2c0.2,0,0.4-0.1,0.6-0.1c0.1,0,0.2,0,0.3-0.1c0.1,0,0.2,0,0.3,0
		c0.5-0.1,1.1-0.1,1.7-0.1c7.4,0,13.5,6,13.5,13.5c0,0.6,0,1.1-0.1,1.7c0,0.1,0,0.2,0,0.3c0,0.1,0,0.2-0.1,0.3
		c0,0.2-0.1,0.4-0.1,0.6c0.8-1.6,1.2-3.4,1.2-5.3C37.1,18.3,31.7,12.9,25.1,12.9z"/>
	<path class="st2" d="M25,0C11.2,0,0,11.2,0,25c0,13.8,11.2,25,25,25c13.8,0,25-11.2,25-25C50,11.2,38.8,0,25,0z M35.7,33.2
		c-0.7,0.9-1.5,1.7-2.4,2.3c-2.6,3.3-6.5,5.3-10.6,5.3c-7.4,0-13.5-6-13.5-13.5c0-4.2,1.9-8.1,5.3-10.6c0.7-0.9,1.5-1.7,2.3-2.4
		c2.5-3.2,6.4-5.2,10.6-5.2c7.4,0,13.5,6,13.5,13.5C40.8,26.8,38.9,30.7,35.7,33.2z"/>
</g>
</svg>
