<?xml version="1.0" encoding="utf-8"?>
<!-- Generator: Adobe Illustrator 21.0.0, SVG Export Plug-In . SVG Version: 6.00 Build 0)  -->
<svg version="1.1" id="Layer_1" xmlns="http://www.w3.org/2000/svg" xmlns:xlink="http://www.w3.org/1999/xlink" x="0px" y="0px"
	 viewBox="0 0 50 50" style="enable-background:new 0 0 50 50;" xml:space="preserve">
<style type="text/css">
	.st0{fill-rule:evenodd;clip-rule:evenodd;fill:#484848;}
	.st1{fill-rule:evenodd;clip-rule:evenodd;fill:#FF6F80;}
	.st2{fill:#484848;}
	.st3{fill:#FF6F80;}
	.st4{fill:#33CEC3;}
	.st5{fill:#26D3CC;}
	.st6{fill:#ACD1CD;}
	.st7{fill:#FF556D;}
	.st8{fill:#E2B3BB;}
	.st9{fill:#28CBC0;}
	.st10{fill:#4BD4CB;}
	.st11{fill:#FF6A7F;}
	.st12{fill:#394B63;}
	.st13{fill:#7E868E;}
	.st14{fill:#979797;}
	.st15{fill:#496CAB;}
	.st16{fill-rule:evenodd;clip-rule:evenodd;fill:#39579B;}
	.st17{fill:#C9C9C9;}
	.st18{fill-rule:evenodd;clip-rule:evenodd;fill:#C9C9C9;}
	.st19{fill:#374961;}
</style>
<g>
	<g>
		<path class="st1" d="M25,0C11.2,0,0,11.2,0,25s11.2,25,25,25c13.8,0,25-11.2,25-25S38.8,0,25,0z M36.7,32.2
			c-0.6,0.7-1.3,1.4-2.1,2c-0.7,0.9-1.5,1.7-2.4,2.3c-2.6,3.3-6.5,5.3-10.6,5.3c-7.4,0-13.5-6-13.5-13.5c0-4.2,1.9-8.1,5.3-10.6
			c0.7-0.9,1.5-1.7,2.3-2.4c0.6-0.8,1.3-1.4,2-2.1c2.5-3.1,6.3-5.1,10.5-5.1c7.4,0,13.5,6,13.5,13.5C41.8,25.8,39.9,29.6,36.7,32.2z
			"/>
		<path class="st1" d="M24.1,13.9c-1.9,0-3.7,0.4-5.3,1.2c0.1,0,0.1,0,0.2,0c0,0,0,0,0,0c0.1,0,0.3,0,0.4-0.1c0.1,0,0.2,0,0.3-0.1
			c0.1,0,0.2,0,0.3,0c0.1,0,0.2,0,0.3,0c0.5,0,0.9-0.1,1.4-0.1c7.4,0,13.5,6,13.5,13.5c0,0.5,0,0.9-0.1,1.4c0,0.1,0,0.2,0,0.3
			c0,0.1,0,0.2,0,0.2c0,0.1,0,0.2-0.1,0.3c0,0.1,0,0.3-0.1,0.4c0,0,0,0,0,0.1c0,0.1,0,0.1,0,0.2c0.8-1.6,1.2-3.4,1.2-5.3
			C36.1,19.3,30.7,13.9,24.1,13.9z"/>
		<path class="st1" d="M21.7,16.4c-0.6,0-1.1,0.1-1.7,0.1c-0.1,0-0.1,0-0.2,0c-0.2,0-0.4,0.1-0.6,0.1c-0.3,0.1-0.6,0.1-1,0.2
			c-0.2,0.1-0.4,0.1-0.7,0.2c-0.1,0-0.2,0.1-0.3,0.1c-0.2,0.1-0.5,0.2-0.7,0.3c-0.3,0.1-0.5,0.2-0.8,0.4c-0.5,0.3-1,0.6-1.4,0.9
			c-3,2.3-4.7,5.8-4.7,9.5c0,6.6,5.4,12,12,12c3.8,0,7.2-1.7,9.5-4.7l0,0c0.3-0.5,0.6-0.9,0.9-1.4c0.1-0.3,0.3-0.5,0.4-0.8
			c0.1-0.2,0.2-0.4,0.3-0.7c0-0.1,0.1-0.2,0.1-0.3c0.1-0.2,0.2-0.4,0.2-0.7c0.1-0.3,0.2-0.6,0.2-0.9c0-0.2,0.1-0.4,0.1-0.6
			c0-0.1,0-0.1,0-0.2c0.1-0.5,0.1-1.1,0.1-1.7C33.6,21.7,28.3,16.4,21.7,16.4z M22.3,34c-2.5,0-4.4-1.4-5.2-3.5h-1.8V29h1.5
			c0-0.2,0-0.5,0-0.8c0-0.3,0-0.5,0-0.7h-1.5V26h1.8c0.8-2,2.8-3.4,5.2-3.4c2.6,0,4,1.4,4,1.4l-0.8,1.2c0,0-1.3-1.2-3.2-1.2
			c-1.6,0-2.8,0.8-3.5,2h3.9v1.5h-4.4c0,0.2-0.1,0.5-0.1,0.7c0,0.3,0,0.5,0.1,0.8h4.4v1.5h-3.9c0.7,1.2,1.9,2.1,3.5,2.1
			c2.1,0,3.4-1.4,3.4-1.4l0.8,1.1C26.5,32.3,25,34,22.3,34z"/>
		<path class="st1" d="M26.4,11.7c-1.7,0-3.3,0.4-4.8,1c0.8-0.2,1.7-0.3,2.6-0.3c7.4,0,13.5,6,13.5,13.5c0,0.9-0.1,1.7-0.3,2.6
			c0.7-1.5,1-3.2,1-4.8C38.3,17,33,11.7,26.4,11.7z"/>
		<path class="st1" d="M28.3,9.7c-1.2,0-2.4,0.2-3.6,0.6c0.5-0.1,1.1-0.1,1.6-0.1c7.4,0,13.5,6,13.5,13.5c0,0.6,0,1.1-0.1,1.6
			c0.4-1.1,0.6-2.4,0.6-3.6C40.3,15.1,34.9,9.7,28.3,9.7z"/>
	</g>
</g>
</svg>
