<?xml version="1.0" encoding="utf-8"?>
<!-- Generator: Adobe Illustrator 21.0.0, SVG Export Plug-In . SVG Version: 6.00 Build 0)  -->
<svg version="1.1" id="Layer_1" xmlns="http://www.w3.org/2000/svg" xmlns:xlink="http://www.w3.org/1999/xlink" x="0px" y="0px"
	 viewBox="0 0 159 63" style="enable-background:new 0 0 159 63;" xml:space="preserve">
<style type="text/css">
	.st0{fill-rule:evenodd;clip-rule:evenodd;fill:#484848;}
	.st1{fill-rule:evenodd;clip-rule:evenodd;fill:#FF6F80;}
	.st2{fill:#484848;}
	.st3{fill:#FF6F80;}
	.st4{fill:#33CEC3;}
	.st5{fill:#26D3CC;}
	.st6{fill:#ACD1CD;}
	.st7{fill:#FF556D;}
	.st8{fill:#E2B3BB;}
	.st9{fill:#28CBC0;}
	.st10{fill:#4BD4CB;}
	.st11{fill:#FF6A7F;}
	.st12{fill:#394B63;}
	.st13{fill:#7E868E;}
	.st14{fill:#979797;}
	.st15{fill:#496CAB;}
	.st16{fill-rule:evenodd;clip-rule:evenodd;fill:#39579B;}
	.st17{fill:#C9C9C9;}
	.st18{fill-rule:evenodd;clip-rule:evenodd;fill:#C9C9C9;}
	.st19{fill:#374961;}
</style>
<g>
	<g>
		<path class="st6" d="M130.7,56.7H30.1c-13.5,0-24.4-11-24.4-24.4c0-13.5,11-24.4,24.4-24.4h100.6c13.5,0,24.4,11,24.4,24.4
			C155.2,45.8,144.2,56.7,130.7,56.7z M30.1,9.3c-12.7,0-23,10.3-23,23s10.3,23,23,23h100.6c12.7,0,23-10.3,23-23s-10.3-23-23-23
			H30.1z"/>
	</g>
	<g>
		<path class="st6" d="M64,23.2c4.9,0,8.6,3.6,8.6,8.4S68.8,40,63.9,40h-6.7V23.2H64z M59.1,38.2H64c3.7,0,6.7-2.8,6.7-6.6
			c0-3.8-3-6.6-6.7-6.6h-4.8V38.2z"/>
		<path class="st6" d="M86.7,34.4H76.4c0.3,2.5,2.1,4,4.6,4c1.6,0,2.9-0.6,3.9-1.6l1,1.1c-1.2,1.3-3,2.1-5.1,2.1
			c-3.7,0-6.3-2.6-6.3-6.4s2.6-6.4,6.3-6.4C84.9,27.3,86.9,30.1,86.7,34.4z M85.1,32.9c-0.1-2.4-1.8-4-4.2-4c-2.4,0-4.1,1.6-4.4,4
			H85.1z"/>
		<path class="st6" d="M97.8,38.1c-1,1.4-2.6,2-4.6,2c-2.6,0-4.3-1.7-4.3-3.9c0-2.2,1.8-3.6,4.7-3.6h4.2v-0.7c0-1.8-1.2-3-3.4-3
			c-1.4,0-2.7,0.5-4,1.4L89.6,29c1.6-1.1,3-1.7,5.2-1.7c3.1,0,4.8,1.7,4.9,4.4l0,8.4h-1.8V38.1z M97.8,35.6v-1.5h-3.9
			c-2.1,0-3.2,0.6-3.2,2c0,1.4,1.1,2.3,2.9,2.3C95.7,38.5,97.3,37.4,97.8,35.6z"/>
		<path class="st6" d="M103.9,40V22.2h1.9V40H103.9z"/>
	</g>
</g>
</svg>
