<?xml version="1.0" encoding="utf-8"?>
<!-- Generator: Adobe Illustrator 21.0.0, SVG Export Plug-In . SVG Version: 6.00 Build 0)  -->
<svg version="1.1" id="Layer_1" xmlns="http://www.w3.org/2000/svg" xmlns:xlink="http://www.w3.org/1999/xlink" x="0px" y="0px"
	 viewBox="0 0 67.8 67.8" style="enable-background:new 0 0 67.8 67.8;" xml:space="preserve">
<style type="text/css">
	.st0{fill-rule:evenodd;clip-rule:evenodd;fill:#484848;}
	.st1{fill-rule:evenodd;clip-rule:evenodd;fill:#FF6F80;}
	.st2{fill:#484848;}
	.st3{fill:#FF6F80;}
	.st4{fill:#33CEC3;}
	.st5{fill:#26D3CC;}
	.st6{fill:#ACD1CD;}
	.st7{fill:#FF556D;}
	.st8{fill:#E2B3BB;}
	.st9{fill:#28CBC0;}
	.st10{fill:#4BD4CB;}
	.st11{fill:#FF6A7F;}
	.st12{fill:#394B63;}
	.st13{fill:#7E868E;}
	.st14{fill:#979797;}
	.st15{fill:#496CAB;}
	.st16{fill-rule:evenodd;clip-rule:evenodd;fill:#39579B;}
	.st17{fill:#C9C9C9;}
	.st18{fill-rule:evenodd;clip-rule:evenodd;fill:#C9C9C9;}
	.st19{fill:#374961;}
</style>
<g>
	<g>
		<path class="st6" d="M35.5,59.4c-14.2,0-25.7-11.6-25.7-25.8c0-14.2,11.6-25.7,25.7-25.7s25.8,11.6,25.8,25.7
			C61.2,47.9,49.7,59.4,35.5,59.4z M35.5,8.9C21.8,8.9,10.7,20,10.7,33.7s11.1,24.8,24.8,24.8s24.8-11.1,24.8-24.8
			S49.1,8.9,35.5,8.9z"/>
	</g>
	<polygon class="st6" points="47.6,29.3 44.2,25.8 30.6,39.2 26.1,34.7 22.7,38.2 30.7,46.2 34.1,42.7 	"/>
</g>
</svg>
