<?xml version="1.0" encoding="utf-8"?>
<!-- Generator: Adobe Illustrator 21.0.0, SVG Export Plug-In . SVG Version: 6.00 Build 0)  -->
<svg version="1.1" id="Layer_1" xmlns="http://www.w3.org/2000/svg" xmlns:xlink="http://www.w3.org/1999/xlink" x="0px" y="0px"
	 viewBox="0 0 101 40" style="enable-background:new 0 0 101 40;" xml:space="preserve">
<style type="text/css">
	.st0{fill-rule:evenodd;clip-rule:evenodd;fill:#484848;}
	.st1{fill-rule:evenodd;clip-rule:evenodd;fill:#FF6F80;}
	.st2{fill:#484848;}
	.st3{fill:#FF6F80;}
	.st4{fill:#33CEC3;}
	.st5{fill:#26D3CC;}
	.st6{fill:#ACD1CD;}
	.st7{fill:#FF556D;}
	.st8{fill:#E2B3BB;}
	.st9{fill:#28CBC0;}
	.st10{fill:#4BD4CB;}
	.st11{fill:#FF6A7F;}
	.st12{fill:#394B63;}
	.st13{fill:#7E868E;}
	.st14{fill:#979797;}
	.st15{fill:#496CAB;}
	.st16{fill-rule:evenodd;clip-rule:evenodd;fill:#39579B;}
	.st17{fill:#C9C9C9;}
	.st18{fill-rule:evenodd;clip-rule:evenodd;fill:#C9C9C9;}
	.st19{fill:#374961;}
</style>
<g>
	<g>
		<path class="st8" d="M84.3,36.7H18.5c-8.9,0-16.2-7.3-16.2-16.2S9.6,4.3,18.5,4.3h65.8c8.9,0,16.2,7.3,16.2,16.2
			S93.3,36.7,84.3,36.7z M18.5,5.7c-8.2,0-14.8,6.6-14.8,14.8s6.6,14.8,14.8,14.8h65.8c8.2,0,14.8-6.6,14.8-14.8S92.5,5.7,84.3,5.7
			H18.5z"/>
	</g>
	<g>
		<path class="st8" d="M41.1,16l-0.6,1.3c-1.1-0.7-2.4-1-3.3-1c-1.6,0-2.6,0.6-2.6,1.6c0,3.1,6.8,1.5,6.8,5.9c0,2-1.8,3.3-4.4,3.3
			c-1.8,0-3.5-0.8-4.6-1.8L33,24c1.1,1.1,2.7,1.7,4,1.7c1.7,0,2.8-0.7,2.8-1.9c0-3.2-6.8-1.5-6.8-5.8c0-1.9,1.7-3.1,4.2-3.1
			C38.7,14.9,40.1,15.3,41.1,16z"/>
		<path class="st8" d="M49.7,25.6c-0.7,1-1.9,1.5-3.3,1.5c-1.9,0-3.1-1.2-3.1-2.8c0-1.6,1.3-2.6,3.4-2.6h3v-0.5
			c0-1.3-0.8-2.1-2.4-2.1c-1,0-1.9,0.4-2.9,1l-0.6-1c1.2-0.8,2.2-1.2,3.7-1.2c2.2,0,3.5,1.2,3.5,3.1l0,6h-1.3V25.6z M49.7,23.9v-1.1
			h-2.8c-1.5,0-2.3,0.5-2.3,1.5s0.8,1.7,2.1,1.7C48.1,25.9,49.3,25.1,49.7,23.9z"/>
		<path class="st8" d="M56,27l-3.6-9.1h1.4l2.9,7.7l2.9-7.7H61L57.4,27H56z"/>
		<path class="st8" d="M70.4,23H63c0.2,1.8,1.5,2.9,3.3,2.9c1.1,0,2.1-0.4,2.8-1.1l0.7,0.8c-0.9,1-2.1,1.5-3.7,1.5
			c-2.7,0-4.5-1.9-4.5-4.6s1.9-4.6,4.5-4.6C69.1,17.8,70.6,19.9,70.4,23z M69.2,21.9c-0.1-1.7-1.3-2.9-3-2.9c-1.7,0-3,1.1-3.2,2.9
			H69.2z"/>
	</g>
</g>
</svg>
