<?xml version="1.0" encoding="utf-8"?>
<!-- Generator: Adobe Illustrator 21.0.0, SVG Export Plug-In . SVG Version: 6.00 Build 0)  -->
<svg version="1.1" id="Layer_1" xmlns="http://www.w3.org/2000/svg" xmlns:xlink="http://www.w3.org/1999/xlink" x="0px" y="0px"
	 viewBox="0 0 67.8 67.8" style="enable-background:new 0 0 67.8 67.8;" xml:space="preserve">
<style type="text/css">
	.st0{fill-rule:evenodd;clip-rule:evenodd;fill:#484848;}
	.st1{fill-rule:evenodd;clip-rule:evenodd;fill:#FF6F80;}
	.st2{fill:#484848;}
	.st3{fill:#FF6F80;}
	.st4{fill:#33CEC3;}
	.st5{fill:#26D3CC;}
	.st6{fill:#ACD1CD;}
	.st7{fill:#FF556D;}
	.st8{fill:#E2B3BB;}
	.st9{fill:#28CBC0;}
	.st10{fill:#4BD4CB;}
	.st11{fill:#FF6A7F;}
	.st12{fill:#394B63;}
	.st13{fill:#7E868E;}
	.st14{fill:#979797;}
	.st15{fill:#496CAB;}
	.st16{fill-rule:evenodd;clip-rule:evenodd;fill:#39579B;}
	.st17{fill:#C9C9C9;}
	.st18{fill-rule:evenodd;clip-rule:evenodd;fill:#C9C9C9;}
	.st19{fill:#374961;}
</style>
<g>
	<g>
		<g>
			<path class="st13" d="M21.6,29.5c0,0.1-0.1,0.2-0.2,0.4c-0.1,0.2-0.3,0.4-0.5,0.5c-0.1,0.1-0.2,0.1-0.2,0.1
				c-0.2,0.1-0.3,0.2-0.5,0.2c-0.1,0.1-0.2,0.1-0.3,0.2h-0.3l-0.3,0.2L19,31L19,31l-0.2,0c-0.1,0-0.3,0-0.3,0c0,0-0.1,0-0.1,0
				c0,0-0.1,0-0.1,0L18,31.1l-0.3,0h-0.3l-0.2,0.1l0,0.1c-0.2,0-0.4,0-0.5,0l-0.1,0l-0.6-0.1l-0.8,0l-0.3-0.1
				c-0.1,0.1-0.2,0.1-0.3,0.1c-0.1,0-0.3,0-0.4-0.1l-0.3,0.1L14,31.1c-0.4,0-0.6,0-0.7-0.1l-0.1,0c0,0-0.1,0-0.2,0l-0.5-0.4
				l-0.3-0.1c-0.2-0.1-0.3-0.2-0.4-0.4c-0.1-0.2-0.1-0.3-0.1-0.5c0-0.1,0-0.3,0.1-0.5l0.3-0.3l0.3,0c0.1-0.1,0.2-0.2,0.3-0.2
				c0.3,0,0.4,0.2,0.4,0.7c-0.2,0-0.3,0.1-0.4,0.1c0,0.1-0.1,0.1-0.2,0.2v0l0.1,0.1l0.2,0.2l0.5,0l0.5,0.1l0.7,0l0.3,0.2l0.1-0.1
				c0.1,0,0.1,0,0.2,0.1l0.4,0.1l0,0.1h0.2c0.2-0.1,0.3-0.1,0.4-0.1c0,0,0.1,0,0.2,0c0.1,0,0.2,0,0.3,0c0.1,0,0.2,0,0.3,0
				c0.1,0,0.1,0,0.2,0c0.1,0,0.2,0,0.3,0l0.3-0.1l0.2-0.2l0.5,0.1c0.3-0.1,0.5-0.1,0.6-0.1h0.1c0.1,0,0.1-0.1,0.2-0.1
				c0,0,0.1,0,0.1,0l0.1-0.1v-0.1h0.3c0.1-0.1,0.2-0.1,0.4-0.1c0.1-0.1,0.2-0.2,0.3-0.2l0.1-0.2c0-0.1-0.3-0.3-0.9-0.5l-0.1-0.1
				c-0.2,0-0.4-0.1-0.5-0.1c-0.1,0-0.1,0-0.2,0h0c0,0-0.2-0.1-0.5-0.2c-0.1-0.1-0.2-0.1-0.3-0.1c0,0-0.1,0-0.2,0h-0.3l0,0
				c-0.1,0-0.3-0.1-0.4-0.1l-0.2,0.1L16.6,28h-0.3l-0.2-0.1h-0.3l0-0.1h-0.2l-0.2-0.2h-0.1c-0.3,0-0.5-0.1-0.7-0.2l0,0
				c-0.2-0.1-0.4-0.2-0.4-0.3L14,26.8l-0.2-0.4l-0.2-0.2l0.1-0.6l0.3-0.4c0.1,0,0.1-0.1,0.1-0.2c0,0,0.1,0,0.1-0.1l0.7-0.4
				c0.1,0,0.2,0,0.2,0c0.1,0,0.3,0,0.4-0.1h0.1v0l0.1-0.1h0.1c0.3-0.1,0.5-0.2,0.7-0.2h0.1l0.1,0l0.2-0.1c0.1,0,0.1,0,0.2,0h0.1
				c0.1,0,0.2,0,0.3,0c0.2,0,0.3,0,0.4,0l0.3,0l0.4-0.2c0,0,0.1,0.1,0.2,0.2h0.3c0.1,0,0.2,0,0.3,0.1h0.1c0.2,0,0.4,0,0.6,0.1
				c0.5,0.1,0.7,0.4,0.7,0.7c0,0.3-0.3,0.5-0.8,0.6L20,25.4c0,0-0.1,0-0.1-0.1s-0.1,0-0.2-0.1h-0.3l-0.1-0.2l-0.2,0l-0.1,0.1
				l-0.3-0.2l-0.4,0.1L17.8,25c-0.3,0-0.5,0.1-0.7,0.2l0,0c0,0-0.1,0-0.1,0c0,0-0.1,0-0.1,0l-0.2-0.1l-0.4,0.2l-0.7,0.2l-0.2,0
				l-0.3,0.2H15l-0.1,0.1l-0.3,0.2l0,0.1l0.2,0.2l0.1,0l0.2,0.1l0.4,0.2l0.2,0l0.4,0.2l0.1,0c0.3,0.1,0.5,0.1,0.5,0.2l0,0h0l0.3,0.2
				l0.1-0.1l0.3,0h0.1h0.2l0.2,0.2h0.1c0.2,0,0.3,0,0.4,0.1c0,0,0.1,0,0.1,0c0.2,0,0.4,0.1,0.6,0.2l0.2-0.1l0.1,0.1h0.2l0.4,0.3
				l0.4,0l0.2,0.2c0.3,0.2,0.5,0.4,0.6,0.5c0.1,0.1,0.1,0.4,0.1,0.6C21.6,29.4,21.6,29.4,21.6,29.5C21.6,29.5,21.6,29.5,21.6,29.5z"
				/>
			<path class="st13" d="M28.3,29.1l-0.2,0.4l0.1,0.3l-0.1,0.1l-0.1,0.2L28,30.3l-0.1,0l0,0.3l-0.3,0c-0.1,0.1-0.3,0.2-0.4,0.3
				l-0.1,0L26.9,31l-0.1,0l-0.3,0.1l-0.3-0.1l0,0l-0.2,0l0.1,0l-0.4-0.1L25.3,31l-0.1-0.1l-0.3,0l-0.1-0.1c0,0,0,0-0.1,0v0.1
				c0,0.1,0,0.2,0,0.3l0,0.3l-0.1,0.1c0,0.2,0,0.4,0,0.5l0,0.4l0,0.5L24.4,33l0.1,0.2l0,0.1l0.1,0v0.2c0,0.1,0,0.1,0,0.1
				c0,0.1,0,0.2-0.1,0.2l0.1,0.2l-0.1,0.1v0.6c0,0.7-0.2,1-0.4,1c-0.1,0-0.2,0-0.5-0.1l0.1-0.4l-0.1-0.6l0.1-0.3v-0.3l-0.1-0.4
				l0.1-0.2l-0.1-0.3l0.1-0.2l-0.1-0.3l0.1-0.3c0-0.1,0-0.1-0.1-0.2s-0.1-0.1-0.1-0.1c0,0,0-0.1,0.1-0.1c0,0,0-0.1,0-0.1
				c0-0.1,0-0.3,0.1-0.5l-0.1-0.1l0-0.2l-0.1-0.1l0.1-0.2l-0.1-0.4l0.1-0.6l-0.1-0.2l0.2-0.3l-0.2-0.2l0.1-0.3L23.5,29l0-0.2
				l0.1-0.3v-0.1l0-0.1v-0.2l0-0.1l-0.1-0.2l0.1-0.2l-0.1-0.2l0.1-0.2l-0.1-0.1l0-0.3l0-0.2l0-0.1l0-0.1L23,26.8v-0.1l-0.1,0
				l-0.2,0.1h-0.1l-0.2,0.2l-0.1-0.1l-0.1,0.1c-0.5-0.3-0.7-0.5-0.7-0.6c0-0.1,0-0.2,0.1-0.3l0-0.2c0.3-0.1,0.5-0.2,0.7-0.2l0.1-0.1
				l0.4-0.2l0.1-0.1l0.4,0l0.1,0l0.1-0.5L24,25l0.2,0.4l0.1-0.1l0.3,0.2c0.1,0,0.2,0,0.3,0.1l0.1,0.1l0.1,0l0.1,0.1
				c0.1,0,0.1,0,0.2,0l0,0.1l0.3-0.1l0.2,0.2l0.3,0.1l0.2,0.2l0.3,0.2l0,0l0.3,0.1v0.1c0.1,0.1,0.1,0.1,0.2,0.2l0.1,0.1l0.1,0.2h0.2
				v0.3l0.1,0.1l0,0.1l0.1,0c0,0.2,0.1,0.4,0.2,0.5v0.1l0.1,0.1l0,0.2l0.1,0.3L28.3,29.1L28.3,29.1z M27.2,29.3L27.2,29.3v-0.1
				l-0.1-0.3l0.1-0.1l-0.1-0.1l0-0.1L27,28.3l-0.1-0.2l-0.2-0.4l-0.2-0.1l-0.1-0.2l-0.1-0.1l-0.2-0.3l-0.2,0l-0.2-0.2l-0.1,0
				l-0.1-0.2l-0.1,0h-0.2l-0.1,0.1L25,26.7l-0.1,0l-0.1-0.1l-0.3,0v0.2V27l0.1,0.2l0.2,0.2l-0.2,0.3l0,0.2l-0.1,0.4
				c0,0.2,0.1,0.3,0.2,0.4l-0.1,0.2c0,0,0,0,0,0c0,0,0,0.1-0.1,0.1l0.1,0.1l-0.1,0.2l0,0.2l0,0.2l0,0.2h0.3c0,0,0.1,0,0.2,0
				c0.1,0,0.2,0,0.2,0.1c0,0,0,0,0.1,0c0,0,0,0,0,0c0,0,0.1,0,0.2,0c0.1,0,0.1,0,0.2,0c0.1,0,0.1,0,0.2,0.1H26l0.1,0l0.3-0.1
				l0.2,0.1c0.1,0,0.1,0,0.1,0l0.3-0.3l0-0.2l0.1,0l0-0.1L27.2,29.3L27.2,29.3z"/>
			<path class="st13" d="M33.8,30c0,0.1-0.1,0.3-0.3,0.4c0,0.1-0.1,0.3-0.2,0.4l-0.1,0l-0.2,0.3l-0.3,0l-0.3,0.2l-0.1,0.3h-0.2
				c-0.1,0-0.2,0.1-0.3,0.1l-0.1,0.1c0,0-0.1,0-0.1,0c-0.1,0-0.2,0.1-0.3,0.2l-0.2-0.2c0,0-0.1,0-0.2,0c-0.1,0-0.2,0-0.3-0.1h-0.2
				l-0.1-0.1c-0.4-0.1-0.6-0.2-0.7-0.4v0l-0.2-0.1l-0.1-0.2l-0.2-0.1v-0.2L29.2,30v-0.5l0.1-0.2V29l0.1-0.2l0-0.1l0.1-0.2l0,0
				c0-0.1,0-0.2,0.1-0.3v-0.1l0-0.3c0-0.2,0.1-0.3,0.2-0.4c0,0,0,0,0-0.1s0-0.1,0-0.2c0-0.1,0-0.2,0-0.2c0-0.1,0-0.2,0.1-0.3
				c0.1,0.1,0.2,0.2,0.3,0.2h0c0,0,0.1-0.1,0.1-0.1c0.1-0.2,0.2-0.4,0.3-0.6l0.1-0.1c0,0,0-0.1,0.1-0.3h0.1l0-0.1l0.1,0
				c0-0.1,0.1-0.1,0.1-0.1s0.1-0.1,0.3-0.2c0-0.1,0.1-0.1,0.2-0.2c0,0,0.1,0,0.1-0.1l0.1-0.1c0.3-0.1,0.4-0.1,0.5-0.1
				c0.1,0,0.1,0,0.2,0.1l0.1,0l0.1,0.1c0.1,0.1,0.2,0.2,0.3,0.2l0.2,0.2v0.1c0.2,0.2,0.3,0.4,0.3,0.7l0,0.1l0,0.5l-0.1,0.1L33.1,27
				l-0.3,0.3l0,0.2c-0.3,0.2-0.6,0.4-0.8,0.5c-0.1,0.1-0.2,0.2-0.4,0.2h0l-0.3,0.2H31l-0.3,0.1l-0.3-0.1h0c0,0.1,0,0.2-0.1,0.3
				l-0.1,0.1l0,0.2l-0.1,0.2c0,0.2,0,0.4,0,0.4l0,0c0,0.1,0,0.2,0,0.3c0,0,0,0,0,0c0,0,0,0,0,0c0,0.1,0,0.1,0.1,0.2
				c0,0.1,0.1,0.2,0.1,0.2l0.1,0.1l0.3,0.1v0l0.1,0h0.5l0.3,0l0.1-0.1l0.1,0l0.1-0.2l0.1,0l0.3-0.1c0-0.1,0.1-0.1,0.2-0.2l0-0.1
				c0.2,0,0.3-0.1,0.3-0.3c0.1-0.1,0.3-0.2,0.5-0.2h0.1C33.7,29.7,33.8,29.9,33.8,30z M32.4,26c0,0,0-0.1,0-0.2l-0.1,0l0,0
				c0,0,0,0-0.1,0c0,0,0,0-0.1,0c0,0,0,0,0,0c0,0,0,0,0,0l-0.1,0.1l-0.1,0l-0.1,0l-0.2,0.3l-0.2,0.1l-0.2,0.4L31,26.9
				c0,0.2-0.1,0.3-0.2,0.4l-0.1,0.1c0.1-0.1,0.2-0.1,0.4-0.1l0.1,0l0-0.1l0.2,0l0.1-0.2h0.1l0.2,0.1l0.1-0.2h0.1v-0.2l0.2,0l0,0
				l0-0.1l0.2-0.3C32.4,26.1,32.4,26.1,32.4,26z"/>
			<path class="st13" d="M39.9,29l-0.3,0.3l0,0.1c0,0.2-0.1,0.3-0.2,0.4c-0.2,0.4-0.5,0.7-0.9,0.9l-0.2,0.2l-0.2,0L37.8,31l-0.2,0
				l-0.4,0.2l-0.2,0l-0.3,0.1l-0.2-0.1l-0.1,0.1l-0.3,0l-0.3,0l-0.1-0.1l-0.3-0.1l-0.4-0.3L35,30.6c-0.1-0.2-0.2-0.3-0.2-0.4v0
				l-0.1-0.2v-0.2c0-0.1,0-0.2,0-0.3v-0.1l-0.1-0.2l0.1-0.2l-0.1-0.1l0.2-0.3l0-0.2l0.1-0.4l0.1-0.1l0.1-0.3l0-0.1l0.2-0.2l0-0.1
				l0.1-0.3l0.2-0.4l0.3-0.2l0.1-0.1l0.1-0.2l0-0.1l0.2-0.3c0.1,0,0.1,0,0.2-0.1c0-0.2,0.3-0.3,0.7-0.3c0.4,0.1,0.6,0.2,0.7,0.3
				c0.1,0,0.2,0.1,0.2,0.1l0.3,0l0.2,0.3c0,0.1,0.1,0.2,0.1,0.3l0.1,0.1l0,0.2c0,0.1,0,0.2,0,0.3l0.1,0.1v0.2l0.1,0.4
				c-0.2,0.2-0.4,0.3-0.7,0.3c-0.1-0.2-0.3-0.4-0.5-0.5v-0.5l-0.1-0.2l0-0.1l-0.1-0.2l-0.1-0.1l-0.1,0h-0.2c-0.1,0-0.2,0.1-0.4,0.3
				c-0.1,0.1-0.2,0.3-0.3,0.5l0,0.1L36,27.3v0.3l-0.2,0.2l-0.2,0.6l0,0.2l-0.1,0.3l0,0.3l-0.1,0l0,0.4l0,0.1l0.2,0.2l0.1,0.3
				l0.2,0.1l0,0.1l0.2,0l0.2,0c0.1,0,0.1-0.1,0.2-0.1h0.1c0.1,0,0.2-0.1,0.3-0.1c0.1,0,0.1-0.1,0.3-0.1c0.1-0.1,0.3-0.2,0.5-0.2h0.1
				c0,0,0.1,0,0.1-0.1c0.1-0.2,0.3-0.3,0.5-0.3c0.3-0.2,0.4-0.4,0.4-0.6c0.1-0.1,0.2-0.2,0.3-0.3l0.1-0.1l0-0.3
				c0.4,0.1,0.6,0.3,0.6,0.6V29z"/>
			<path class="st13" d="M44.5,29.1c0,0.2,0,0.3-0.1,0.4l-0.1,0.1l-0.1,0.2L44,29.9c-0.1,0.1-0.2,0.3-0.3,0.4l-0.1,0l-0.2,0.2
				l-0.2,0c-0.1,0.2-0.2,0.3-0.4,0.3c0,0-0.1,0.1-0.1,0.2c-0.1,0.1-0.3,0.1-0.4,0.2l-0.1,0l-0.1,0.1h-0.3l-0.2,0.2L41.1,31l-0.3-0.5
				l0-0.7l-0.1-0.2l0.2-1.2l0.1-0.1c0-0.1,0-0.3,0-0.4c0-0.1,0-0.3,0.1-0.5l0.1-0.3c0-0.1-0.1-0.1-0.1-0.2l0.1-0.3l0-0.3l0,0
				c0-0.1-0.1-0.2-0.1-0.3c0,0,0,0,0-0.1c0,0,0-0.1,0-0.1c0-0.1,0-0.2,0-0.2c0-0.2,0.1-0.3,0.4-0.3h0.2c0.1,0,0.2-0.1,0.2-0.1
				c0.2,0,0.3,0.1,0.4,0.3v0.1c0,0.1,0.1,0.2,0.1,0.3c0,0.1,0,0.1,0,0.2l-0.1,0.7l0.1,0.2c0,0.2-0.1,0.3-0.2,0.4l0.1,0.2l-0.2,0.5
				c0,0.2,0,0.4-0.1,0.5V29l-0.1,0.2l0,0.1l0,0.3l0,0.3L42,30l0.2,0l0,0l0.1,0l0.2-0.1l0.2-0.2l0.1-0.1l0.1,0l0-0.1l0-0.1l0.1,0.1
				l0.1-0.1l0.1,0l0-0.1h0l0-0.1l0.1-0.1l0.3-0.1c0.2-0.1,0.4-0.2,0.6-0.2h0.1C44.4,28.9,44.5,29,44.5,29.1z M43.1,21.7
				c0,0.1-0.1,0.2-0.2,0.3v0c-0.2,0.2-0.3,0.3-0.5,0.4l-0.2,0.3L42,22.8l-0.3,0.1l-0.1,0.2l-0.2,0.1L41,23.6l-0.2-0.2l0-0.3l0.2-0.3
				c0-0.1,0.1-0.2,0.2-0.3v-0.1l0.1-0.1l0-0.2l0.2-0.1v-0.1l0.2,0c0-0.2,0.1-0.3,0.2-0.4l0,0l0.1-0.1l0.1-0.3
				C42.8,21.2,43.1,21.4,43.1,21.7z"/>
			<path class="st13" d="M50.9,25.5l-0.1,0.2l0.1,0.3l-0.2,0.2l-0.1,0.3l0,0.1l0,0.1c0,0.1,0,0.2-0.1,0.3l0,0v0.1c0,0.1,0,0.1,0,0.2
				c0,0,0,0.1,0,0.1l0,0.1l-0.1,0.2l0,0.2l-0.1,0.1l0,0.2l0.1,0.1l-0.1,0.1v0.2l-0.1,0.2l0.1,0.2L50.3,29l0.1,0.1l-0.2,0.3l0,0
				l0.1,0l-0.1,0.3v0.1c0,0.1,0,0.1,0,0.2l0,0l0.2,0l0.2,0.3l-0.1,0.2l0.2,0c0.1,0.1,0.1,0.2,0.1,0.3l-0.2,0.2
				c-0.1,0.1-0.2,0.1-0.3,0.2l-0.2,0.1L50,31.3l-0.1,0.1l-0.4-0.5v-0.2c-0.1-0.2-0.1-0.4-0.1-0.5v-0.1l-0.1-0.8l0.1-0.6l-0.1-0.3
				L49,28.7l-0.1,0.4l-0.1,0.1l-0.2,0.3l-0.4,0.3l-0.1,0.2l-0.3,0.3l-0.1,0.2l-0.4,0.3l-0.5,0.5l-0.3,0.1l-0.2,0.1
				c-0.2,0-0.4-0.1-0.5-0.3c-0.4-0.2-0.6-0.5-0.7-0.9l0.1,0l0-0.1l0-0.2l-0.1-0.2l0.1-0.2l0-0.3l0.1-0.5c0,0,0,0,0-0.1
				c0,0,0,0,0-0.1c0,0,0-0.1,0-0.1c0,0,0-0.1,0-0.1c0-0.1,0-0.2,0.1-0.3l0.1,0c-0.1,0-0.1-0.1-0.1-0.2c0,0,0-0.1,0-0.1
				c0,0,0-0.1,0-0.1c0-0.1,0.1-0.2,0.2-0.3c0-0.1,0.1-0.2,0.2-0.3l-0.1-0.1l0.2-0.2v-0.1c0-0.2,0.1-0.3,0.2-0.5l0-0.3l0.1-0.1
				c0,0,0,0,0,0c0,0,0,0,0,0c0-0.1,0-0.1,0.1-0.1v-0.1c0-0.1,0.1-0.2,0.3-0.4c0.2-0.2,0.3-0.4,0.4-0.5l0.1,0.1l0.2-0.1l0.1,0
				l0.5-0.2l1.1,0.1v0.1l0.3,0.1c0.2,0,0.4,0.1,0.4,0.2c0,0,0-0.1,0-0.1c0,0,0,0,0-0.1l0.3,0.3l0.3,0.1l0.5-0.1l0.2,0.3L50.9,25.5z
				 M49.5,26.2L49.5,26.2l-0.2-0.1l-0.4-0.3l-0.3,0h-0.2l0-0.1l-0.1,0.1l-0.1-0.1h-0.4l0,0.1l-0.3,0.1l-0.1,0.1l0,0
				c-0.2,0.1-0.3,0.3-0.3,0.3L47,26.6l-0.1,0.1l0.1,0.2l-0.2,0.2l0,0.1c-0.1,0.2-0.2,0.4-0.2,0.5l-0.1,0.1l0,0.3l-0.1,0.1l0,0.1l0,0
				v0.2l0,0.1c0,0.1,0,0.2,0,0.3l0,0.1l-0.1,0.3l0.1,0.1l-0.1,0.1l0.1,0.3l-0.2,0.2l0,0.3v0l0.1,0l0.1,0c0,0,0.1-0.1,0.1-0.1l0-0.1
				l0.2,0l0-0.1l0.8-0.7l0.1,0l0.1-0.2c0.1,0,0.1-0.1,0.2-0.1l0.1-0.2h0.1l0-0.2l0.2,0c0,0,0-0.1,0.1-0.1s0.1-0.1,0.1-0.2l0.7-1
				l0.1-0.2l0-0.1l0.1-0.2l0-0.2l0.1-0.1L49.5,26.2z"/>
			<path class="st13" d="M56.4,29.6c0,0.1,0,0.2-0.1,0.3c-0.1,0.1-0.2,0.2-0.4,0.4l-0.1,0.1l-0.1,0.2l-0.1,0.1l-0.2,0.1l-0.1,0
				l-0.1,0.1c-0.2,0.1-0.3,0.1-0.4,0.3c-0.1,0-0.1,0.1-0.2,0.1c0,0-0.1,0-0.1,0c-0.2,0.1-0.4,0.1-0.6,0.1c-0.2,0-0.4,0-0.4-0.1
				L53.1,31L53,30.9v0c0-0.1-0.1-0.2-0.2-0.3l-0.1-0.3l-0.1-0.1l-0.1-0.5v-0.3v-0.2l0-0.1c0-0.1,0-0.1,0-0.2c0-0.4,0.1-0.6,0.1-0.7
				l-0.1-0.3l0.1-0.2l0-0.3l0-0.2l0.1-0.2l-0.1-0.3l0.2-0.2l0-0.1v-0.5v-0.1v-0.6l0-0.6l0-0.1v-0.4v-0.4v-0.1l0.1-0.8
				c0.4-0.1,0.6-0.1,0.5-0.1c0.1,0,0.3,0.1,0.4,0.2l0,0.1l0.2,0.2L54,23.3v0.1c0,0.2-0.1,0.3-0.1,0.4l0,0.3l0.1,0.3l-0.1,0.3
				c0,0.2,0,0.3-0.1,0.4c0,0,0,0.1,0,0.2l0,0.1l0.1,0.2l0,0.2c0,0.1,0,0.1,0,0.2c0,0.1,0,0.1-0.1,0.2l0,0.1l-0.1,0.4v0.3l-0.1,0.3
				l0.1,0.3L53.7,28l0,0.1l-0.1,0.3l0,0.4c0,0.1,0,0.1,0,0.1c0,0.2,0,0.3,0,0.4l0,0.2v0.2l0.1,0.2l0,0.1c0.1,0,0.1,0.1,0.2,0.2H54
				l0.2,0.1l0.1-0.1l0.1,0c0.1,0,0.1,0,0.1,0h0c0.1,0,0.2-0.1,0.2-0.1l0.1,0c0.1-0.1,0.2-0.2,0.3-0.2c0,0,0.1-0.1,0.3-0.2
				c0-0.1,0.1-0.2,0.2-0.3c0.1,0,0.2,0,0.3-0.1c0.2,0,0.3,0.1,0.4,0.1C56.3,29.3,56.4,29.4,56.4,29.6z"/>
		</g>
		<g>
			<path class="st13" d="M28.8,48.2l-0.2,0.6l-0.1,0.2c-0.1,0.2-0.3,0.3-0.4,0.3c-0.1,0-0.3-0.1-0.4-0.2l-0.3-0.4l-0.1-0.3l-0.1-0.3
				l-0.1-0.4v-0.6l0-0.5l0-0.3l0-0.1l-0.4,0.5h0l0,0l-0.2,0.4L26,47.5l-0.3,0.4l-0.3,0.3c-0.1,0.1-0.2,0.3-0.3,0.4l-0.3,0.2L24.6,49
				l-0.3,0.1l-0.1,0.2l-0.3,0.1l-0.3,0.2h0l0,0.1l-0.4-0.1l-0.5-0.4c-0.1-0.2-0.2-0.3-0.3-0.5c0,0,0,0,0.1,0c0,0,0,0,0,0
				c0,0-0.1,0-0.2-0.1l-0.1-0.3l0.1-0.1l-0.1-0.2l0.1-0.2l0-0.3l0.1-0.4v-0.4l0.1-0.1v-0.3l0.1-0.2l0-0.2l0,0v-0.2l0.1-0.2l0-0.2
				l0.1-0.1l0-0.1l0.1-0.3l0.1-0.3l0.1-0.1l0-0.2l0.2-0.2c0,0,0.1-0.1,0.1-0.3l0.4-0.2l0.2-0.2l0.6-0.2c0.1,0,0.2,0,0.2,0L25,43
				l0-0.1l0.3,0l0.1,0l0.1,0l0.1,0.1l0.3,0l0.1,0L26,43l0.1,0v0.1l0.1,0l0.3,0.1l0.2,0.2l0.3,0.2l0.1,0.1l0,0l0.1-0.2l0.1-0.2l0-0.3
				l0.1-0.6l-0.1-0.2l0.1-0.2L27.2,42l0-0.4l0-0.3l-0.1-0.1l0.2-0.2v-0.2c0-0.2-0.1-0.3-0.2-0.5h0.1l0.2-0.2c0.1,0,0.3,0,0.4,0
				c0.1,0,0.2,0,0.3,0.1c0.1,0,0.2,0.3,0.2,0.7h-0.1l0,0.1l0.1,0.1l-0.1,0.2l0.1,0.3l-0.1,0.1c0,0.1,0,0.1,0,0.2s0,0.1,0,0.2
				l0.1,0.1c0,0,0,0.1,0,0.2c0,0.1,0,0.2-0.1,0.3c0,0.6-0.1,1-0.1,1.1c0,0,0,0.1,0,0.1c0,0.1,0,0.2,0,0.2V44c0,0.1,0,0.2-0.1,0.4
				l0,0.4L28,44.9L28,45L28,45.2l0.1,0.2l-0.1,0.4l0.1,0.3v0.2l0,0.3c0,0.1,0,0.1,0,0.2c0,0,0,0.1,0,0.1l0.1,0.1L28,47.3l0.1,0.3
				l0,0.1l0,0.1l0,0.1l0,0l0.1,0.1l0.2,0L28.8,48.2z M26.7,44.7L26.7,44.7c-0.1-0.1-0.2-0.1-0.2-0.2c-0.1-0.1-0.1-0.2-0.1-0.3
				c-0.1,0-0.2-0.1-0.2-0.2H26l-0.3-0.2l-0.3-0.1l-0.3,0L24.8,44l-0.1-0.1l-0.1,0V44l-0.1,0c-0.1,0.1-0.2,0.3-0.4,0.4L24,44.7
				l-0.1,0.1L23.8,45l0,0.5l-0.1,0.1v0.3l-0.1,0.1l0,0.3l-0.2,0.5l0,0.2l0,0.4l0.1,0.2l-0.1,0.2l0.1,0.1l-0.1,0.3l0.1,0.1l0.1,0.2
				l0.1,0.1l0.1,0l0.1-0.1l0.1,0l0.2-0.1l0-0.1l0.3-0.1l0-0.1l0.2-0.1v0l0.4-0.4l0.2-0.1l0.1-0.2l0.2,0l0.2-0.3l0,0l0.1-0.1l0.1-0.3
				l0.1-0.1l0.1-0.3l0.2-0.1l0.2-0.2l0.1,0v-0.3l0.2-0.1L26.7,44.7z"/>
			<path class="st13" d="M34.6,48c0,0.1-0.1,0.3-0.3,0.4c0,0.1-0.1,0.3-0.2,0.4l-0.1,0l-0.2,0.3l-0.3,0l-0.3,0.2l-0.1,0.3h-0.2
				c-0.1,0-0.2,0.1-0.3,0.1l-0.1,0.1c0,0-0.1,0-0.1,0c-0.1,0-0.2,0.1-0.3,0.2l-0.2-0.2c0,0-0.1,0-0.2,0c-0.1,0-0.2,0-0.3-0.1h-0.2
				l-0.1-0.1c-0.4-0.1-0.6-0.2-0.7-0.4v0l-0.2-0.1l-0.1-0.2l-0.2-0.1v-0.2L30,48v-0.5l0.1-0.2V47l0.1-0.2l0-0.1l0.1-0.2l0,0
				c0-0.1,0-0.2,0.1-0.3v-0.1l0-0.3c0-0.2,0.1-0.3,0.2-0.4c0,0,0,0,0-0.1s0-0.1,0-0.2c0-0.1,0-0.2,0-0.2c0-0.1,0-0.2,0.1-0.3
				c0.1,0.1,0.2,0.2,0.3,0.2h0c0,0,0.1-0.1,0.1-0.1c0.1-0.2,0.2-0.4,0.3-0.6l0.1-0.1c0,0,0-0.1,0.1-0.3h0.1l0-0.1l0.1,0
				c0-0.1,0.1-0.1,0.1-0.1s0.1-0.1,0.3-0.2c0-0.1,0.1-0.1,0.2-0.2c0,0,0.1,0,0.1-0.1l0.1-0.1c0.3-0.1,0.4-0.1,0.5-0.1
				c0.1,0,0.1,0,0.2,0.1l0.1,0l0.1,0.1c0.1,0.1,0.2,0.2,0.3,0.2l0.2,0.2v0.1c0.2,0.2,0.3,0.4,0.3,0.7l0,0.1l0,0.5L34,44.7L33.9,45
				l-0.3,0.3l0,0.2c-0.3,0.2-0.6,0.4-0.8,0.5c-0.1,0.1-0.2,0.2-0.4,0.2h0l-0.3,0.2h-0.2l-0.3,0.1l-0.3-0.1h0c0,0.1,0,0.2-0.1,0.3
				l-0.1,0.1l0,0.2L31,47.3c0,0.2,0,0.4,0,0.4l0,0c0,0.1,0,0.2,0,0.3c0,0,0,0,0,0c0,0,0,0,0,0c0,0.1,0,0.1,0.1,0.2
				c0,0.1,0.1,0.2,0.1,0.2l0.1,0.1l0.3,0.1v0l0.1,0h0.5l0.3,0l0.1-0.1l0.1,0l0.1-0.2l0.1,0l0.3-0.1c0-0.1,0.1-0.1,0.2-0.2l0-0.1
				c0.2,0,0.3-0.1,0.3-0.3c0.1-0.1,0.3-0.2,0.5-0.2h0.1C34.5,47.7,34.6,47.9,34.6,48z M33.2,44c0,0,0-0.1,0-0.2l-0.1,0l0,0
				c0,0,0,0-0.1,0c0,0,0,0-0.1,0c0,0,0,0,0,0c0,0,0,0,0,0l-0.1,0.1l-0.1,0l-0.1,0l-0.2,0.3l-0.2,0.1l-0.2,0.4l-0.1,0.1
				c0,0.2-0.1,0.3-0.2,0.4l-0.1,0.1c0.1-0.1,0.2-0.1,0.4-0.1l0.1,0l0-0.1l0.2,0l0.1-0.2h0.1l0.2,0.1l0.1-0.2h0.1v-0.2l0.2,0l0,0
				l0-0.1l0.2-0.3C33.2,44.1,33.2,44.1,33.2,44z"/>
			<path class="st13" d="M41.1,43.5l-0.1,0.2L41,44l-0.2,0.2l-0.1,0.3l0,0.1l0,0.1c0,0.1,0,0.2-0.1,0.3l0,0v0.1c0,0.1,0,0.1,0,0.2
				c0,0,0,0.1,0,0.1l0,0.1l-0.1,0.2l0,0.2l-0.1,0.1l0,0.2l0.1,0.1l-0.1,0.1v0.2l-0.1,0.2l0.1,0.2L40.4,47l0.1,0.1l-0.2,0.3l0,0
				l0.1,0l-0.1,0.3v0.1c0,0.1,0,0.1,0,0.2l0,0l0.2,0l0.2,0.3l-0.1,0.2l0.2,0c0.1,0.1,0.1,0.2,0.1,0.3l-0.2,0.2
				c-0.1,0.1-0.2,0.1-0.3,0.2l-0.2,0.1l-0.1-0.1L40,49.4l-0.4-0.5v-0.2c-0.1-0.2-0.1-0.4-0.1-0.5v-0.1l-0.1-0.8l0.1-0.6l-0.1-0.3
				l-0.2,0.4l-0.1,0.4L39,47.1l-0.2,0.3l-0.4,0.3l-0.1,0.2L38,48.2L38,48.4l-0.4,0.3L37,49.2l-0.3,0.1l-0.2,0.1
				c-0.2,0-0.4-0.1-0.5-0.3c-0.4-0.2-0.6-0.5-0.7-0.9l0.1,0l0-0.1l0-0.2l-0.1-0.2l0.1-0.2l0-0.3l0.1-0.5c0,0,0,0,0-0.1
				c0,0,0,0,0-0.1c0,0,0-0.1,0-0.1c0,0,0-0.1,0-0.1c0-0.1,0-0.2,0.1-0.3l0.1,0c-0.1,0-0.1-0.1-0.1-0.2c0,0,0-0.1,0-0.1
				c0,0,0-0.1,0-0.1c0-0.1,0.1-0.2,0.2-0.3c0-0.1,0.1-0.2,0.2-0.3l-0.1-0.1l0.2-0.2v-0.1c0-0.2,0.1-0.3,0.2-0.5l0-0.3l0.1-0.1
				c0,0,0,0,0,0c0,0,0,0,0,0c0-0.1,0-0.1,0.1-0.1v-0.1c0-0.1,0.1-0.2,0.3-0.4c0.2-0.2,0.3-0.4,0.4-0.5l0.1,0.1l0.2-0.1l0.1,0
				l0.5-0.2l1.1,0.1v0.1l0.3,0.1c0.2,0,0.4,0.1,0.4,0.2c0,0,0-0.1,0-0.1c0,0,0,0,0-0.1l0.3,0.3l0.3,0.1l0.5-0.1l0.2,0.3L41.1,43.5z
				 M39.7,44.2L39.7,44.2l-0.2-0.1l-0.4-0.3l-0.3,0h-0.2l0-0.1l-0.1,0.1l-0.1-0.1H38l0,0.1l-0.3,0.1l-0.1,0.1l0,0
				c-0.2,0.1-0.3,0.3-0.3,0.3l-0.1,0.3l-0.1,0.1l0.1,0.2L37,45.1l0,0.1c-0.1,0.2-0.2,0.4-0.2,0.5l-0.1,0.1l0,0.3l-0.1,0.1l0,0.1l0,0
				v0.2l0,0.1c0,0.1,0,0.2,0,0.3l0,0.1l-0.1,0.3l0.1,0.1l-0.1,0.1l0.1,0.3l-0.2,0.2l0,0.3v0l0.1,0l0.1,0c0,0,0.1-0.1,0.1-0.1l0-0.1
				l0.2,0l0-0.1l0.8-0.7l0.1,0l0.1-0.2c0.1,0,0.1-0.1,0.2-0.1l0.1-0.2h0.1l0-0.2l0.2,0c0,0,0-0.1,0.1-0.1s0.1-0.1,0.1-0.2l0.7-1
				l0.1-0.2l0-0.1l0.1-0.2l0-0.2l0.1-0.1L39.7,44.2z"/>
			<path class="st13" d="M46.6,47.6c0,0.1,0,0.2-0.1,0.3c-0.1,0.1-0.2,0.2-0.4,0.4l-0.1,0.1l-0.1,0.2l-0.1,0.1l-0.2,0.1l-0.1,0
				l-0.1,0.1c-0.2,0.1-0.3,0.1-0.4,0.3c-0.1,0-0.1,0.1-0.2,0.1c0,0-0.1,0-0.1,0c-0.2,0.1-0.4,0.1-0.6,0.1c-0.2,0-0.4,0-0.4-0.1
				L43.3,49l-0.1-0.1v0c0-0.1-0.1-0.2-0.2-0.3L43,48.3l-0.1-0.1l-0.1-0.5v-0.3v-0.2l0-0.1c0-0.1,0-0.1,0-0.2c0-0.4,0.1-0.6,0.1-0.7
				l-0.1-0.3l0.1-0.2l0-0.3l0-0.2l0.1-0.2l-0.1-0.3l0.2-0.2l0-0.1v-0.5v-0.1v-0.6l0-0.6l0-0.1v-0.4v-0.4v-0.1l0.1-0.8
				c0.4-0.1,0.6-0.1,0.5-0.1c0.1,0,0.3,0.1,0.4,0.2l0,0.1l0.2,0.2l-0.1,0.3v0.1c0,0.2-0.1,0.3-0.1,0.4l0,0.3l0.1,0.3l-0.1,0.3
				c0,0.2,0,0.3-0.1,0.4c0,0,0,0.1,0,0.2l0,0.1l0.1,0.2l0,0.2c0,0.1,0,0.1,0,0.2c0,0.1,0,0.1-0.1,0.2l0,0.1L44,44.5v0.3l-0.1,0.3
				l0.1,0.3L43.9,46l0,0.1l-0.1,0.3l0,0.4c0,0.1,0,0.1,0,0.1c0,0.2,0,0.3,0,0.4l0,0.2v0.2l0.1,0.2l0,0.1c0.1,0,0.1,0.1,0.2,0.2h0.1
				l0.2,0.1l0.1-0.1l0.1,0c0.1,0,0.1,0,0.1,0h0c0.1,0,0.2-0.1,0.2-0.1l0.1,0c0.1-0.1,0.2-0.2,0.3-0.2c0,0,0.1-0.1,0.3-0.2
				c0-0.1,0.1-0.2,0.2-0.3c0.1,0,0.2,0,0.3-0.1c0.2,0,0.3,0.1,0.4,0.1C46.5,47.3,46.6,47.4,46.6,47.6z"/>
		</g>
	</g>
	<g>
		<path class="st13" d="M33.9,65.1c-16.8,0-30.5-13.7-30.5-30.5S17.1,4.1,33.9,4.1s30.5,13.7,30.5,30.5S50.8,65.1,33.9,65.1z
			 M33.9,5.1C17.7,5.1,4.4,18.3,4.4,34.6s13.2,29.5,29.5,29.5s29.5-13.2,29.5-29.5S50.2,5.1,33.9,5.1z"/>
	</g>
</g>
</svg>
