<?xml version="1.0" encoding="utf-8"?>
<!-- Generator: Adobe Illustrator 21.0.0, SVG Export Plug-In . SVG Version: 6.00 Build 0)  -->
<svg version="1.1" id="Layer_1" xmlns="http://www.w3.org/2000/svg" xmlns:xlink="http://www.w3.org/1999/xlink" x="0px" y="0px"
	 viewBox="0 0 101 40" style="enable-background:new 0 0 101 40;" xml:space="preserve">
<style type="text/css">
	.st0{fill-rule:evenodd;clip-rule:evenodd;fill:#484848;}
	.st1{fill-rule:evenodd;clip-rule:evenodd;fill:#FF6F80;}
	.st2{fill:#484848;}
	.st3{fill:#FF6F80;}
	.st4{fill:#33CEC3;}
	.st5{fill:#26D3CC;}
	.st6{fill:#ACD1CD;}
	.st7{fill:#FF556D;}
	.st8{fill:#E2B3BB;}
	.st9{fill:#28CBC0;}
	.st10{fill:#4BD4CB;}
	.st11{fill:#FF6A7F;}
	.st12{fill:#394B63;}
	.st13{fill:#7E868E;}
	.st14{fill:#979797;}
	.st15{fill:#496CAB;}
	.st16{fill-rule:evenodd;clip-rule:evenodd;fill:#39579B;}
	.st17{fill:#C9C9C9;}
	.st18{fill-rule:evenodd;clip-rule:evenodd;fill:#C9C9C9;}
	.st19{fill:#374961;}
</style>
<g>
	<g>
		<path class="st7" d="M83.3,35.7H17.5c-8.9,0-16.2-7.3-16.2-16.2S8.6,3.3,17.5,3.3h65.8c8.9,0,16.2,7.3,16.2,16.2
			S92.3,35.7,83.3,35.7z M17.5,4.7c-8.2,0-14.8,6.6-14.8,14.8s6.6,14.8,14.8,14.8h65.8c8.2,0,14.8-6.6,14.8-14.8S91.5,4.7,83.3,4.7
			H17.5z"/>
	</g>
	<g>
		<path class="st3" d="M36.5,15.2v4h6.1v1.3h-6.1v4.1h7V26h-8.4V13.9h8.2v1.3H36.5z"/>
		<path class="st3" d="M54.6,26h-1.3v-2c-0.7,1.3-1.9,2-3.5,2c-2.6,0-4.4-1.9-4.4-4.6c0-2.7,1.8-4.6,4.4-4.6c1.6,0,2.9,0.7,3.6,2
			v-5.7h1.3V26z M53.2,21.5c0-2-1.4-3.4-3.3-3.4c-1.9,0-3.3,1.4-3.3,3.4c0,2,1.4,3.4,3.3,3.4C51.9,24.9,53.2,23.4,53.2,21.5z"/>
		<path class="st3" d="M59.5,14.3c0,0.5-0.4,0.9-0.9,0.9s-0.9-0.4-0.9-0.9s0.4-0.9,0.9-0.9S59.5,13.8,59.5,14.3z M57.9,26v-9.1h1.3
			V26H57.9z"/>
		<path class="st3" d="M67.2,25.4c-0.6,0.4-1.3,0.7-2.1,0.7c-1.3,0-2.3-0.8-2.3-2.6v-5.2h-1.3v-1.1h1.3v-2.4h1.3v2.4l2.9,0v1.1h-2.9
			v5c0,1.1,0.4,1.5,1.2,1.5c0.5,0,1-0.2,1.5-0.5L67.2,25.4z"/>
	</g>
</g>
</svg>
