<?xml version="1.0" encoding="utf-8"?>
<!-- Generator: Adobe Illustrator 21.0.0, SVG Export Plug-In . SVG Version: 6.00 Build 0)  -->
<svg version="1.1" id="Layer_1" xmlns="http://www.w3.org/2000/svg" xmlns:xlink="http://www.w3.org/1999/xlink" x="0px" y="0px"
	 viewBox="0 0 256 40" style="enable-background:new 0 0 256 40;" xml:space="preserve">
<style type="text/css">
	.st0{fill-rule:evenodd;clip-rule:evenodd;fill:#484848;}
	.st1{fill-rule:evenodd;clip-rule:evenodd;fill:#FF6F80;}
	.st2{fill:#484848;}
	.st3{fill:#FF6F80;}
	.st4{fill:#33CEC3;}
	.st5{fill:#26D3CC;}
	.st6{fill:#ACD1CD;}
	.st7{fill:#FF556D;}
	.st8{fill:#E2B3BB;}
	.st9{fill:#28CBC0;}
	.st10{fill:#4BD4CB;}
	.st11{fill:#FF6A7F;}
	.st12{fill:#394B63;}
	.st13{fill:#7E868E;}
	.st14{fill:#979797;}
	.st15{fill:#496CAB;}
	.st16{fill-rule:evenodd;clip-rule:evenodd;fill:#39579B;}
	.st17{fill:#C9C9C9;}
	.st18{fill-rule:evenodd;clip-rule:evenodd;fill:#C9C9C9;}
	.st19{fill:#374961;}
</style>
<g>
	<g>
		<path class="st14" d="M218.5,38h-198C10.3,38,2,29.7,2,19.5S10.3,1,20.5,1h198C228.7,1,237,9.3,237,19.5S228.7,38,218.5,38z
			 M20.5,3C11.4,3,4,10.4,4,19.5S11.4,36,20.5,36h198c9.1,0,16.5-7.4,16.5-16.5S227.6,3,218.5,3H20.5z"/>
	</g>
	<g>
		<path class="st15" d="M70.7,14.8v9h5.4V25h-6.7V14.8H70.7z"/>
		<path class="st15" d="M76.9,19.8c0.2-0.5,0.4-0.9,0.7-1.2c0.3-0.3,0.7-0.6,1.1-0.8c0.4-0.2,1-0.3,1.5-0.3c0.6,0,1.1,0.1,1.5,0.3
			s0.8,0.5,1.1,0.8c0.3,0.3,0.5,0.8,0.7,1.2c0.2,0.5,0.2,1,0.2,1.5c0,0.5-0.1,1-0.2,1.5c-0.2,0.5-0.4,0.9-0.7,1.2
			c-0.3,0.3-0.7,0.6-1.1,0.8s-1,0.3-1.5,0.3c-0.6,0-1.1-0.1-1.5-0.3c-0.4-0.2-0.8-0.5-1.1-0.8c-0.3-0.3-0.5-0.8-0.7-1.2
			c-0.2-0.5-0.2-1-0.2-1.5C76.7,20.8,76.8,20.3,76.9,19.8z M78.2,22.5c0.1,0.3,0.3,0.6,0.5,0.9c0.2,0.2,0.5,0.4,0.7,0.5
			c0.3,0.1,0.6,0.2,0.9,0.2s0.6-0.1,0.9-0.2s0.5-0.3,0.7-0.5c0.2-0.2,0.4-0.5,0.5-0.9c0.1-0.3,0.2-0.7,0.2-1.2
			c0-0.4-0.1-0.8-0.2-1.2c-0.1-0.3-0.3-0.6-0.5-0.9s-0.5-0.4-0.7-0.5s-0.6-0.2-0.9-0.2s-0.6,0.1-0.9,0.2c-0.3,0.1-0.5,0.3-0.7,0.5
			c-0.2,0.2-0.4,0.5-0.5,0.9C78,20.5,78,20.9,78,21.3C78,21.8,78,22.2,78.2,22.5z"/>
		<path class="st15" d="M90.8,27.1c-0.5,0.6-1.4,0.9-2.6,0.9c-0.3,0-0.7,0-1-0.1c-0.4-0.1-0.7-0.2-1-0.4c-0.3-0.2-0.5-0.4-0.7-0.7
			c-0.2-0.3-0.3-0.6-0.3-1h1.2c0,0.2,0.1,0.4,0.2,0.6c0.1,0.2,0.3,0.3,0.5,0.4c0.2,0.1,0.4,0.2,0.6,0.2c0.2,0,0.4,0.1,0.6,0.1
			c0.4,0,0.7-0.1,1-0.2c0.3-0.1,0.5-0.3,0.7-0.6c0.2-0.2,0.3-0.5,0.4-0.9c0.1-0.3,0.1-0.7,0.1-1.1v-0.5h0c-0.2,0.5-0.5,0.8-0.9,1
			c-0.4,0.2-0.9,0.3-1.3,0.3c-0.6,0-1-0.1-1.4-0.3c-0.4-0.2-0.7-0.5-1-0.8c-0.3-0.3-0.5-0.7-0.6-1.2c-0.1-0.5-0.2-0.9-0.2-1.4
			c0-0.4,0.1-0.9,0.2-1.3s0.3-0.9,0.6-1.3c0.3-0.4,0.6-0.7,1.1-0.9c0.4-0.2,1-0.4,1.6-0.4c0.5,0,0.9,0.1,1.3,0.3
			c0.4,0.2,0.7,0.5,0.9,0.9h0v-1.1h1.1v6.7C91.6,25.6,91.3,26.5,90.8,27.1z M89.2,23.8c0.3-0.2,0.5-0.4,0.7-0.7
			c0.2-0.3,0.3-0.6,0.4-0.9s0.1-0.7,0.1-1c0-0.3,0-0.6-0.1-1c-0.1-0.3-0.2-0.6-0.4-0.8c-0.2-0.3-0.4-0.5-0.6-0.6
			c-0.3-0.2-0.6-0.2-1-0.2c-0.4,0-0.7,0.1-1,0.2c-0.3,0.1-0.5,0.3-0.7,0.6c-0.2,0.2-0.3,0.5-0.4,0.9c-0.1,0.3-0.1,0.7-0.1,1
			c0,0.3,0,0.7,0.1,1c0.1,0.3,0.2,0.6,0.3,0.9c0.2,0.3,0.4,0.5,0.6,0.7s0.6,0.2,1,0.2C88.6,24,89,23.9,89.2,23.8z"/>
		<path class="st15" d="M97.5,16.3v-1.5h1.2v1.5H97.5z M98.7,17.6V25h-1.2v-7.4H98.7z"/>
		<path class="st15" d="M101.7,17.6v1.2h0c0.5-0.9,1.3-1.3,2.4-1.3c0.5,0,0.9,0.1,1.2,0.2s0.6,0.3,0.8,0.6s0.3,0.5,0.4,0.8
			s0.1,0.7,0.1,1.1V25h-1.2v-5c0-0.5-0.1-0.8-0.4-1.1s-0.6-0.4-1.1-0.4c-0.4,0-0.7,0.1-1,0.2c-0.3,0.1-0.5,0.3-0.7,0.5
			s-0.3,0.5-0.4,0.7c-0.1,0.3-0.1,0.6-0.1,0.9V25h-1.2v-7.4H101.7z"/>
		<path class="st15" d="M118.4,25l-1.5-5.8h0l-1.5,5.8h-1.3l-2.4-7.4h1.3l1.7,6h0l1.5-6h1.3l1.5,6h0l1.7-6h1.3l-2.3,7.4H118.4z"/>
		<path class="st15" d="M123.3,16.3v-1.5h1.2v1.5H123.3z M124.5,17.6V25h-1.2v-7.4H124.5z"/>
		<path class="st15" d="M129.5,17.6v1.1H128v4.6c0,0.1,0,0.3,0,0.3c0,0.1,0.1,0.2,0.1,0.2c0.1,0,0.2,0.1,0.3,0.1c0.1,0,0.3,0,0.5,0
			h0.6V25h-0.9c-0.3,0-0.6,0-0.8-0.1c-0.2,0-0.4-0.1-0.5-0.2c-0.1-0.1-0.2-0.3-0.3-0.5c-0.1-0.2-0.1-0.5-0.1-0.8v-4.7h-1.3v-1.1h1.3
			v-2.2h1.2v2.2H129.5z"/>
		<path class="st15" d="M132,14.8v3.9h0c0.1-0.2,0.2-0.4,0.4-0.6c0.2-0.2,0.4-0.3,0.6-0.4s0.4-0.2,0.7-0.2s0.5-0.1,0.7-0.1
			c0.5,0,0.9,0.1,1.2,0.2s0.6,0.3,0.8,0.6s0.3,0.5,0.4,0.8s0.1,0.7,0.1,1.1V25h-1.2v-5c0-0.5-0.1-0.8-0.4-1.1s-0.6-0.4-1.1-0.4
			c-0.4,0-0.7,0.1-1,0.2c-0.3,0.1-0.5,0.3-0.7,0.5s-0.3,0.5-0.4,0.7c-0.1,0.3-0.1,0.6-0.1,0.9V25h-1.2V14.8H132z"/>
		<path class="st15" d="M149.6,14.8V16h-5.3v3.2h4.7v1.1h-4.7V25h-1.4V14.8H149.6z"/>
		<path class="st15" d="M157.4,25c-0.2,0.1-0.5,0.2-0.9,0.2c-0.3,0-0.6-0.1-0.7-0.3c-0.2-0.2-0.3-0.5-0.3-0.9
			c-0.3,0.4-0.7,0.7-1.2,0.9c-0.4,0.2-0.9,0.3-1.4,0.3c-0.3,0-0.6,0-0.9-0.1c-0.3-0.1-0.6-0.2-0.8-0.4c-0.2-0.2-0.4-0.4-0.5-0.6
			c-0.1-0.3-0.2-0.6-0.2-0.9c0-0.4,0.1-0.8,0.2-1c0.1-0.3,0.3-0.5,0.6-0.6c0.2-0.2,0.5-0.3,0.8-0.4c0.3-0.1,0.6-0.2,0.9-0.2
			c0.3-0.1,0.6-0.1,0.9-0.1s0.6-0.1,0.8-0.1s0.4-0.2,0.5-0.3c0.1-0.1,0.2-0.3,0.2-0.5c0-0.3,0-0.5-0.1-0.6s-0.2-0.3-0.4-0.4
			c-0.2-0.1-0.3-0.1-0.5-0.2s-0.4,0-0.6,0c-0.5,0-0.9,0.1-1.3,0.3s-0.5,0.6-0.6,1.1h-1.2c0-0.5,0.1-0.8,0.3-1.2
			c0.2-0.3,0.4-0.6,0.7-0.8s0.6-0.3,1-0.4s0.8-0.1,1.2-0.1c0.3,0,0.7,0,1,0.1c0.3,0,0.6,0.1,0.9,0.3s0.5,0.4,0.6,0.6
			c0.2,0.3,0.2,0.6,0.2,1v3.8c0,0.3,0,0.5,0,0.6s0.1,0.2,0.3,0.2c0.1,0,0.2,0,0.4-0.1V25z M155.4,21.2c-0.2,0.1-0.4,0.2-0.6,0.2
			s-0.5,0.1-0.8,0.1c-0.3,0-0.5,0.1-0.8,0.1c-0.3,0-0.5,0.1-0.7,0.2c-0.2,0.1-0.4,0.2-0.5,0.4c-0.1,0.2-0.2,0.4-0.2,0.7
			c0,0.2,0,0.4,0.1,0.5c0.1,0.1,0.2,0.2,0.3,0.3s0.3,0.1,0.4,0.2c0.2,0,0.4,0.1,0.5,0.1c0.4,0,0.7-0.1,1-0.2s0.5-0.2,0.7-0.4
			c0.2-0.2,0.3-0.3,0.4-0.5s0.1-0.4,0.1-0.5V21.2z"/>
		<path class="st15" d="M162.9,18.9c-0.3-0.3-0.7-0.4-1.2-0.4c-0.4,0-0.8,0.1-1.1,0.2c-0.3,0.2-0.5,0.4-0.7,0.6
			c-0.2,0.3-0.3,0.6-0.4,0.9c-0.1,0.3-0.1,0.7-0.1,1.1c0,0.3,0,0.7,0.1,1c0.1,0.3,0.2,0.6,0.4,0.9c0.2,0.3,0.4,0.5,0.7,0.6
			c0.3,0.2,0.6,0.2,1,0.2c0.6,0,1.1-0.2,1.4-0.5c0.3-0.3,0.5-0.8,0.6-1.3h1.2c-0.1,0.9-0.5,1.6-1,2.1c-0.5,0.5-1.3,0.7-2.2,0.7
			c-0.6,0-1.1-0.1-1.5-0.3c-0.4-0.2-0.8-0.4-1.1-0.8c-0.3-0.3-0.5-0.7-0.7-1.2c-0.1-0.5-0.2-1-0.2-1.5c0-0.6,0.1-1.1,0.2-1.5
			c0.1-0.5,0.4-0.9,0.6-1.3c0.3-0.4,0.7-0.6,1.1-0.8c0.4-0.2,0.9-0.3,1.5-0.3c0.4,0,0.8,0,1.2,0.1c0.4,0.1,0.7,0.3,1,0.5
			c0.3,0.2,0.5,0.5,0.7,0.8c0.2,0.3,0.3,0.7,0.3,1.1h-1.3C163.4,19.5,163.2,19.2,162.9,18.9z"/>
		<path class="st15" d="M171.4,24.5c-0.5,0.4-1.2,0.6-2.1,0.6c-0.6,0-1.1-0.1-1.5-0.3s-0.8-0.5-1.1-0.8c-0.3-0.3-0.5-0.7-0.7-1.2
			c-0.1-0.5-0.2-1-0.2-1.6c0-0.6,0.1-1.1,0.3-1.5c0.2-0.5,0.4-0.9,0.7-1.2c0.3-0.3,0.7-0.6,1.1-0.8c0.4-0.2,0.9-0.3,1.4-0.3
			c0.7,0,1.2,0.1,1.6,0.4s0.8,0.6,1,1c0.3,0.4,0.4,0.9,0.5,1.4s0.1,1,0.1,1.4H167c0,0.3,0,0.6,0.1,0.9c0.1,0.3,0.2,0.5,0.4,0.8
			c0.2,0.2,0.4,0.4,0.7,0.5c0.3,0.1,0.6,0.2,1,0.2c0.5,0,0.9-0.1,1.3-0.4c0.3-0.2,0.5-0.6,0.6-1.1h1.2
			C172.3,23.5,171.9,24.1,171.4,24.5z M171.1,19.8c-0.1-0.3-0.3-0.5-0.4-0.7c-0.2-0.2-0.4-0.3-0.7-0.4c-0.3-0.1-0.5-0.2-0.8-0.2
			c-0.3,0-0.6,0.1-0.8,0.2c-0.3,0.1-0.5,0.3-0.6,0.4c-0.2,0.2-0.3,0.4-0.4,0.7c-0.1,0.3-0.2,0.5-0.2,0.8h4.2
			C171.2,20.3,171.2,20.1,171.1,19.8z"/>
		<path class="st15" d="M175,14.8v3.8h0c0.2-0.4,0.5-0.7,0.9-0.9c0.4-0.2,0.9-0.3,1.4-0.3c0.6,0,1.1,0.1,1.5,0.3
			c0.4,0.2,0.8,0.5,1.1,0.8c0.3,0.4,0.5,0.8,0.6,1.2s0.2,1,0.2,1.5s-0.1,1-0.2,1.5c-0.1,0.5-0.3,0.9-0.6,1.2
			c-0.3,0.3-0.6,0.6-1.1,0.8s-0.9,0.3-1.5,0.3c-0.2,0-0.4,0-0.6-0.1c-0.2,0-0.4-0.1-0.7-0.2c-0.2-0.1-0.4-0.2-0.6-0.3
			c-0.2-0.1-0.4-0.3-0.5-0.5h0v1h-1.2V14.8H175z M179.4,20.3c-0.1-0.3-0.2-0.6-0.4-0.9s-0.4-0.5-0.7-0.6c-0.3-0.2-0.6-0.2-1-0.2
			c-0.4,0-0.8,0.1-1,0.2c-0.3,0.2-0.5,0.4-0.7,0.6c-0.2,0.3-0.3,0.6-0.4,0.9s-0.1,0.7-0.1,1c0,0.4,0,0.7,0.1,1
			c0.1,0.3,0.2,0.6,0.4,0.9s0.4,0.5,0.7,0.6c0.3,0.2,0.6,0.2,1.1,0.2s0.8-0.1,1-0.2c0.3-0.2,0.5-0.4,0.7-0.6s0.3-0.6,0.4-0.9
			c0.1-0.3,0.1-0.7,0.1-1.1C179.5,20.9,179.5,20.6,179.4,20.3z"/>
		<path class="st15" d="M182.1,19.8c0.2-0.5,0.4-0.9,0.7-1.2c0.3-0.3,0.7-0.6,1.1-0.8c0.4-0.2,1-0.3,1.5-0.3c0.6,0,1.1,0.1,1.5,0.3
			s0.8,0.5,1.1,0.8c0.3,0.3,0.5,0.8,0.7,1.2c0.2,0.5,0.2,1,0.2,1.5c0,0.5-0.1,1-0.2,1.5c-0.2,0.5-0.4,0.9-0.7,1.2
			c-0.3,0.3-0.7,0.6-1.1,0.8s-1,0.3-1.5,0.3c-0.6,0-1.1-0.1-1.5-0.3c-0.4-0.2-0.8-0.5-1.1-0.8c-0.3-0.3-0.5-0.8-0.7-1.2
			c-0.2-0.5-0.2-1-0.2-1.5C181.8,20.8,181.9,20.3,182.1,19.8z M183.3,22.5c0.1,0.3,0.3,0.6,0.5,0.9c0.2,0.2,0.5,0.4,0.7,0.5
			c0.3,0.1,0.6,0.2,0.9,0.2s0.6-0.1,0.9-0.2s0.5-0.3,0.7-0.5c0.2-0.2,0.4-0.5,0.5-0.9c0.1-0.3,0.2-0.7,0.2-1.2
			c0-0.4-0.1-0.8-0.2-1.2c-0.1-0.3-0.3-0.6-0.5-0.9s-0.5-0.4-0.7-0.5s-0.6-0.2-0.9-0.2s-0.6,0.1-0.9,0.2c-0.3,0.1-0.5,0.3-0.7,0.5
			c-0.2,0.2-0.4,0.5-0.5,0.9c-0.1,0.3-0.2,0.7-0.2,1.2C183.1,21.8,183.2,22.2,183.3,22.5z"/>
		<path class="st15" d="M190.2,19.8c0.2-0.5,0.4-0.9,0.7-1.2c0.3-0.3,0.7-0.6,1.1-0.8c0.4-0.2,1-0.3,1.5-0.3c0.6,0,1.1,0.1,1.5,0.3
			s0.8,0.5,1.1,0.8c0.3,0.3,0.5,0.8,0.7,1.2c0.2,0.5,0.2,1,0.2,1.5c0,0.5-0.1,1-0.2,1.5c-0.2,0.5-0.4,0.9-0.7,1.2
			c-0.3,0.3-0.7,0.6-1.1,0.8s-1,0.3-1.5,0.3c-0.6,0-1.1-0.1-1.5-0.3c-0.4-0.2-0.8-0.5-1.1-0.8c-0.3-0.3-0.5-0.8-0.7-1.2
			c-0.2-0.5-0.2-1-0.2-1.5C190,20.8,190.1,20.3,190.2,19.8z M191.5,22.5c0.1,0.3,0.3,0.6,0.5,0.9c0.2,0.2,0.5,0.4,0.7,0.5
			c0.3,0.1,0.6,0.2,0.9,0.2s0.6-0.1,0.9-0.2s0.5-0.3,0.7-0.5c0.2-0.2,0.4-0.5,0.5-0.9c0.1-0.3,0.2-0.7,0.2-1.2
			c0-0.4-0.1-0.8-0.2-1.2c-0.1-0.3-0.3-0.6-0.5-0.9s-0.5-0.4-0.7-0.5s-0.6-0.2-0.9-0.2s-0.6,0.1-0.9,0.2c-0.3,0.1-0.5,0.3-0.7,0.5
			c-0.2,0.2-0.4,0.5-0.5,0.9c-0.1,0.3-0.2,0.7-0.2,1.2C191.3,21.8,191.3,22.2,191.5,22.5z"/>
		<path class="st15" d="M199.8,14.8v6l3.4-3.2h1.6l-2.9,2.7L205,25h-1.5l-2.5-3.8l-1.1,1.1V25h-1.2V14.8H199.8z"/>
	</g>
	<path class="st16" d="M39.5,16.1c0-1.2,2.1-0.6,2.1-0.6l0.3-1.9c0,0-1.1-0.3-2.4-0.2c-2.7,0.1-2.6,2.3-2.6,2.3v1.9h-1.3v2h1.3V26
		h2.6v-6.6h2l0.2-2h-2.1V16.1"/>
</g>
</svg>
