<?xml version="1.0" encoding="utf-8"?>
<!-- Generator: Adobe Illustrator 21.0.0, SVG Export Plug-In . SVG Version: 6.00 Build 0)  -->
<svg version="1.1" id="Layer_1" xmlns="http://www.w3.org/2000/svg" xmlns:xlink="http://www.w3.org/1999/xlink" x="0px" y="0px"
	 viewBox="0 0 1984.2 749.9" style="enable-background:new 0 0 1984.2 749.9;" xml:space="preserve">
<style type="text/css">
	.st0{fill:#353535;}
	.st1{fill:#D79FA5;}
	.st2{fill:#8D6061;}
	.st3{fill:#BF8E8E;}
	.st4{fill:#FFFFFF;}
</style>
<path class="st0" d="M1933,261.9c-5.2-34.4-21.9-61.3-52.5-78.8c-26.3-15.1-55.1-21.1-84.8-22c-25.7-0.8-51.6,0-77.3,1.2
	c-17.1,0.8-34.1,3.2-51.1,5.6c-12,1.6-16.2,7-16.2,18.8c0,124.4,0,248.8,0,373.1c0,9.8,4.1,13.8,14,13.8c15.5,0,31,0,46.4,0
	c13,0,16.3-3.2,16.3-16.1c0-43.8,0-87.5,0-131.3c0-2.2,0-4.5,0-6.2c25,0,49,0.6,73-0.2c25.5-0.9,50.1-6.8,73.1-18.4
	c26.5-13.5,45.2-34.2,54.4-62.6C1936.2,313.7,1936.9,287.8,1933,261.9z M1854.7,320.5c-6.6,19.8-22.4,29.5-41.8,34.2
	c-22.4,5.4-45.2,3.4-67.8,2.9c-5.5-0.1-11-0.6-17.2-0.9c0-43.8,0-87,0-131c6.8-0.4,13.4-1,20-1.2c22.1-0.8,44.3-2.4,66.1,3
	c19.4,4.7,35.1,14.3,41.2,34.6C1861.1,281.4,1861.1,301.3,1854.7,320.5z"/>
<path class="st1" d="M1164.4,671.5l-250.7-53.2c-22.9-4.9-39.2-25-39.2-48.4V165.7c0-23.4,16.3-43.5,39.1-48.4l250.6-53.7
	c30.8-6.6,59.9,16.9,59.9,48.4v511.1C1224.2,654.6,1195.2,678.1,1164.4,671.5z"/>
<path class="st2" d="M1283.9,63.6l250.7,53.2c22.9,4.9,39.2,25,39.2,48.4v404.2c0,23.3-16.3,43.5-39.1,48.4L1284,671.5
	c-30.8,6.6-59.9-16.9-59.9-48.4V112C1224.2,80.5,1253.2,57,1283.9,63.6z"/>
<path class="st3" d="M1252.2,56.8c-7.4-1.6-19.7-3.1-28.1-3.1s-20.6,1.5-28.1,3.1l-30.4,6.5c30.3-5.6,58.4,17.7,58.4,48.7
	c0-31,28.2-54.2,58.4-48.7L1252.2,56.8z"/>
<path class="st3" d="M1196.1,678.2c7.4,1.6,19.7,3.1,28.1,3.1s20.6-1.5,28.1-3.1l30.4-6.5c-30.3,5.6-58.4-17.7-58.4-48.7
	c0,31-28.2,54.2-58.4,48.7L1196.1,678.2z"/>
<path class="st4" d="M1430.3,369.2c0-67.6,0-133.3,0-200.9c0-11.8-2.5-13.5-12.3-14.7c-13.3-1.6-25.7-3-38.5-4.6
	c-8.3-1-11.8,5.5-11.8,16.4c0,135.7,0,271.5,0,407.2c0,11.4,3.4,16.1,12.2,15.2c13.7-1.4,21.2-2.5,39.5-4.7c8.4-1,10.9-5,10.9-16
	C1430.3,499.1,1430.3,437.1,1430.3,369.2z"/>
<path class="st4" d="M935.8,565c6.1,0.8,10.9,1.7,18.2,2.3c6.1,0.5,9.8,0.9,16.3,2.1c7.6,1.3,11.7-0.5,13.6-11.2
	c3.4-20.1,3.7-16.5,7.1-36.6c2.6-15.3,5.2-30.6,7.6-45.9c0.6-3.7,1.3-9.9,9.8-9.6c23.6,0.9,48.1,3.2,82.8,5c2.4,0.1,3.4,1,4,4.7
	c5.6,34.5,10.4,62.9,16.1,97.4c2.2,13.6,5.1,14.7,14.7,15.9c12.1,1.5,24.2,3.1,36.8,4.6c8.1,1,10.7-3.6,8.6-15
	c-13-72-25.9-143.9-38.9-215.9c-9.8-54.5-19.5-109.1-29.7-163.5c-6-32.2-23.9-44.3-46.9-43.6c-8.9,0.3-17.7,1.3-27,3.4
	c-19.8,4.5-34.4,22.7-39.8,50.1c-8.6,44-14.2,78-22.2,122.3c-14.8,82-24.5,129.4-39.3,211.4C925.3,555.7,926.6,563.8,935.8,565z
	 M1011.1,397.4c2.7-16,5.3-26.7,7.9-42.3c7.2-43.1,14.3-86.2,21.6-129.2c0.9-5.1,1.4-10.9,6.6-11c5.2,0,5.7,5.9,6.6,11
	c7.2,43.1,14.4,86.2,21.6,129.2c2.6,15.6,5.2,31.3,7.9,47.3c-12.1,0-24.1-0.7-36-1.6C1034.8,399.9,1023.2,399.1,1011.1,397.4z"/>
<path class="st0" d="M801,158.9c-19.5-0.4-39-0.4-58.5,0c-5.6,0.1-8.7,4.1-9.4,9.8c-2.2,18.4-4.5,36.7-6.8,55.1
	c-3.3,27.3-6.7,58.5-9.9,85.7c-2.9,23.9-5.6,47.7-8.5,71.6c-3.2,26.7-6.6,53.4-9.8,80c-1.7,14-3.4,28-5,42c-0.1,0.6-0.4,2.8-0.8,4
	c-0.7,2.9-2.9,2.3-3.4,0.6c-0.6-1.6-2.4-9.3-3.8-14.9c-14.7-60.2-29.4-120.5-44.2-180.7c-5.3-21.5-13.3-28-36.3-28.7
	c-6.1-0.2-12.2-0.2-18.3-0.2c-6.1-0.1-12.2,0-18.3,0.2c-23,0.7-31,7.2-36.3,28.7c-14.8,60.2-29.5,120.5-44.2,180.7
	c-1.4,5.6-3.1,13.4-3.8,14.9c-0.5,1.6-2.7,2.3-3.4-0.6c-0.3-1.2-0.7-3.4-0.8-4c-1.6-14-3.3-28-5-42c-3.3-26.7-6.6-53.3-9.8-80
	c-2.9-23.9-5.6-47.7-8.5-71.6c-3.3-27.3-6.6-58.5-9.9-85.7c-0.7-5.7-1.4-11.4-2.1-17.1l-2.5-20.3c-1.9-15.7-15.2-27.5-31-27.5h0
	c-15-0.2-16.3-0.2-31.3,0H238.9h-23.8c-0.9,0-1.8,0.1-2.7,0.1c-24.3,0.8-45.3,3.7-65.6,11.4c-21,8-38.2,20.6-49.2,40.6
	c-8.6,15.6-11.3,32.5-11.8,50.1c-0.9,32.3,9.7,59.7,34.6,80.6c11.5,9.6,24.1,18,36.8,26c28.7,18,58.1,35,86.8,53.1
	c14.6,9.2,26,20.9,26.1,40.3c0.1,27.4-11.8,43.4-38.3,47.6c-12.7,2-25.9,2.5-38.8,1.9c-27.5-1.1-54.9-3.3-82.3-5
	c-8.9-0.5-13.2,3.4-13.3,12.3c-0.1,10.9,0,21.8,0,32.7c0,11.5,2.7,15,14.1,16.8c16.7,2.6,33.5,5.6,50.3,7.2
	c30.1,2.9,60.2,3.4,90.1-2.5c21.4-4.2,41.2-11.8,58.7-25.3c38.6-29.7,47.4-83.4,32.8-126.2c-9.2-26.9-28.6-45.9-52.1-60.3
	c-27.8-16.9-56.6-32.1-84.7-48.6c-11.6-6.8-23.1-14.3-33.3-22.9c-18-15.3-14.7-50.7,13.2-59.7c8.6-2.8,17.3-4.2,26.1-4.6h11.6h113.5
	h26.9c3.5,0,6.5,2.6,7,6.1c3.5,25.6,7.1,52.8,10.6,77.3c4,27.9,8.1,55.8,12.1,83.7c4.4,30.6,8.7,61.1,13.2,91.7
	c2.9,19.6,5.5,39.3,9.2,58.7c3.8,19.5,15.1,31.3,32.9,33.1c16.3,1.6,32.8,1.4,49.2,0.9c17.9-0.5,28.9-11.1,35.3-27.2
	c1.1-2.8,2.3-5.7,3-8.6c7.3-29.5,14.5-59.1,21.7-88.7c8.2-33.8,16.1-67.7,24.4-101.5c0.5-1.9,1.1-5.2,3.3-5.2s2.8,3.3,3.3,5.2
	c8.2,33.8,16.2,67.7,24.4,101.5c7.1,29.6,14.4,59.1,21.7,88.7c0.7,2.9,1.9,5.8,3,8.6c6.3,16.1,17.3,26.7,35.3,27.2
	c16.4,0.4,32.9,0.7,49.2-0.9c17.8-1.8,29.2-13.6,32.9-33.1c3.8-19.4,6.4-39.1,9.2-58.7c4.5-30.5,8.8-61.1,13.2-91.7
	c4-27.9,8.1-55.8,12.1-83.7c4.4-30.4,8.7-64.7,13.1-95.1c2.1-14.3,4.3-28.6,6.2-43C810.7,163,807.8,159,801,158.9z"/>
</svg>
